<?xml version="1.0" encoding="utf-8"?>
<!-- Generator: Adobe Illustrator 27.3.1, SVG Export Plug-In . SVG Version: 6.00 Build 0)  -->
<svg version="1.1" id="Layer_1" xmlns="http://www.w3.org/2000/svg" xmlns:xlink="http://www.w3.org/1999/xlink" x="0px" y="0px"
	 viewBox="0 0 165 40" style="enable-background:new 0 0 165 40;" xml:space="preserve">
<style type="text/css">
	.st0{fill:#FFFFFF;}
</style>
<g>
	<g>
		<path class="st0" d="M23.2,26.3V0.6h5v25.7C28.2,26.3,23.2,26.3,23.2,26.3z"/>
		<path class="st0" d="M40.1,26.5c-1.4,0-2.7-0.3-3.9-0.9s-2-1.5-2.6-2.8c-0.7-1.2-0.9-2.8-0.9-4.8V7.6h5v9.8c0,1.6,0.3,2.7,0.9,3.5
			c0.6,0.7,1.5,1.1,2.5,1.1c0.7,0,1.5-0.2,2.1-0.6c0.6-0.3,1.1-0.9,1.4-1.6s0.5-1.7,0.5-2.8V7.6h5v18.7h-4.6v-5.1l0.9,1.5
			c-0.6,1.3-1.4,2.3-2.5,3C42.6,26.2,41.4,26.5,40.1,26.5z"/>
		<path class="st0" d="M63.5,26.5c-2,0-3.7-0.4-5.2-1.2s-2.6-2-3.5-3.5c-0.8-1.5-1.2-3.1-1.2-4.9c0-1.9,0.4-3.5,1.2-5
			s1.9-2.5,3.3-3.4c1.4-0.8,3-1.2,4.8-1.2c1.7,0,3.2,0.4,4.6,1.2c1.4,0.7,2.5,1.9,3.2,3.3c0.8,1.5,1.2,3.2,1.2,5.2
			c0,0.2,0,0.4,0,0.7c0,0.2-0.1,0.5-0.1,0.7H57.7v-3.1h11.4l-1.9,0.9c0-1-0.2-1.8-0.6-2.5c-0.3-0.7-0.9-1.3-1.5-1.6
			c-0.7-0.4-1.4-0.6-2.2-0.6s-1.6,0.2-2.3,0.6s-1.2,1-1.6,1.7c-0.3,0.7-0.6,1.6-0.6,2.5v0.8c0,1,0.2,1.9,0.7,2.7
			c0.4,0.7,1,1.4,1.8,1.8c0.7,0.4,1.6,0.6,2.7,0.6c0.9,0,1.7-0.2,2.5-0.4c0.7-0.3,1.3-0.7,1.9-1.3l2.6,3.1c-0.8,1-1.8,1.7-3,2.2
			C66.4,26.3,65.1,26.5,63.5,26.5z"/>
		<path class="st0" d="M81,26.5c-1.5,0-2.9-0.2-4.3-0.6s-2.5-0.8-3.2-1.5l1.6-3.9c0.8,0.5,1.7,1,2.8,1.3c1.1,0.3,2.1,0.5,3.2,0.5
			c1.2,0,2-0.2,2.5-0.4c0.5-0.3,0.7-0.7,0.7-1.2c0-0.4-0.2-0.7-0.6-1c-0.4-0.2-0.9-0.4-1.5-0.5c-0.7-0.1-1.3-0.2-2.1-0.3
			s-1.5-0.2-2.2-0.5c-0.7-0.2-1.4-0.5-2.1-0.9s-1.2-0.9-1.5-1.6c-0.4-0.7-0.6-1.6-0.6-2.6c0-1.2,0.3-2.2,1-3.1s1.6-1.6,2.7-2.1
			c1.2-0.5,2.6-0.7,4.3-0.7c1.2,0,2.4,0.2,3.6,0.4s2.2,0.7,3,1.2l-1.6,3.9c-0.8-0.5-1.6-0.9-2.5-1.1c-0.8-0.2-1.6-0.3-2.5-0.3
			c-1.2,0-1.9,0.2-2.5,0.5c-0.5,0.3-0.7,0.7-0.7,1.2s0.2,0.8,0.6,1.1c0.4,0.2,0.9,0.4,1.5,0.6c0.7,0.2,1.3,0.2,2.1,0.3
			c0.7,0.1,1.5,0.2,2.2,0.5c0.7,0.2,1.4,0.5,2.1,0.9c0.6,0.4,1.1,0.9,1.5,1.6s0.6,1.5,0.6,2.5c0,1.2-0.3,2.2-1,3
			c-0.7,0.9-1.6,1.6-2.8,2.1C84.2,26.3,82.7,26.5,81,26.5z"/>
		<path class="st0" d="M90.2,12.2V8h12v4.2H90.2z M99.3,26.5c-2.1,0-3.6-0.6-4.8-1.6c-1.2-1.2-1.7-2.8-1.7-5V3.5h5v16.3
			c0,0.8,0.2,1.4,0.6,1.8s0.9,0.7,1.6,0.7c0.8,0,1.5-0.2,2.1-0.7l1.3,3.8c-0.5,0.4-1.2,0.7-1.8,0.9C100.8,26.5,100.1,26.5,99.3,26.5
			z"/>
		<path class="st0" d="M111.6,26.5c-1.3,0-2.5-0.2-3.5-0.7s-1.7-1.2-2.2-2.1c-0.5-0.8-0.7-1.8-0.7-2.9s0.2-2.1,0.7-2.9
			s1.3-1.5,2.4-2s2.5-0.7,4.3-0.7h4.6v3.2h-4c-1.2,0-2,0.2-2.5,0.7c-0.4,0.4-0.7,0.9-0.7,1.6s0.2,1.2,0.7,1.6s1.2,0.6,2.1,0.6
			s1.6-0.2,2.2-0.7c0.7-0.4,1.2-1.1,1.5-1.9l0.7,2.5c-0.3,1.2-1.1,2.1-2,2.7C114.3,26.2,113.1,26.5,111.6,26.5z M116.9,26.3v-3.6
			l-0.3-0.8v-6.5c0-1.2-0.3-2.1-1-2.7c-0.7-0.7-1.6-1-3-1c-0.9,0-1.8,0.2-2.7,0.5c-0.9,0.3-1.6,0.7-2.3,1.2l-1.8-3.8
			c0.9-0.7,2.1-1.2,3.4-1.6s2.7-0.6,4-0.6c2.6,0,4.7,0.7,6.2,2s2.2,3.5,2.2,6.2v10.6L116.9,26.3L116.9,26.3z"/>
		<path class="st0" d="M134.6,26.5c-1.9,0-3.5-0.4-5-1.2s-2.6-2-3.5-3.5c-0.8-1.5-1.2-3.1-1.2-4.9c0-1.9,0.4-3.5,1.2-5
			c0.8-1.5,2-2.5,3.5-3.4c1.5-0.8,3.1-1.2,5-1.2c1.8,0,3.4,0.4,4.8,1.2c1.3,0.8,2.4,2,3,3.5l-3.9,2.2c-0.4-0.9-1-1.6-1.7-2
			s-1.4-0.7-2.2-0.7s-1.6,0.2-2.3,0.7c-0.7,0.4-1.2,1-1.6,1.8c-0.4,0.7-0.6,1.7-0.6,2.8s0.2,2,0.6,2.8c0.4,0.7,0.9,1.3,1.6,1.8
			c0.7,0.4,1.5,0.7,2.3,0.7s1.6-0.2,2.2-0.6c0.7-0.4,1.2-1.1,1.7-2l3.9,2.3c-0.7,1.5-1.6,2.6-3,3.5C138,26.1,136.4,26.5,134.6,26.5z
			"/>
	</g>
	<g>
		<polygon class="st0" points="163.4,7.6 157.5,7.6 150.1,15.1 150.1,0.6 145,0.6 145,26.2 160.7,10.6 		"/>
		<g>
			<polygon class="st0" points="154,21 157.9,26.3 164,26.3 157.5,17.4 			"/>
		</g>
	</g>
	<g>
		<path class="st0" d="M18.6,11.8c-0.7-1.4-1.8-2.5-3.1-3.3s-2.8-1.2-4.4-1.2c-1.5,0-2.7,0.3-3.9,1.1c-0.5,0.3-1,0.7-1.4,1.2v-9H1
			v25.2L6.8,20c-0.1-0.1-0.2-0.2-0.2-0.4C6.2,18.9,6,17.9,6,16.8s0.2-2,0.6-2.8c0.4-0.7,0.9-1.3,1.6-1.8c0.7-0.4,1.4-0.7,2.2-0.7
			s1.6,0.2,2.2,0.7c0.7,0.4,1.2,1,1.6,1.8c0.4,0.7,0.6,1.7,0.6,2.8s-0.2,2-0.6,2.8c-0.4,0.7-0.9,1.4-1.6,1.8
			c-0.7,0.4-1.4,0.7-2.2,0.7c-0.6,0-1.2-0.1-1.6-0.3L6,24.5c0.3,0.4,0.7,0.8,1.2,1.1c1.1,0.7,2.4,1.1,3.9,1.1c1.6,0,3.1-0.4,4.4-1.2
			s2.3-1.9,3.1-3.4c0.7-1.4,1.2-3.1,1.2-5.1S19.4,13.3,18.6,11.8z"/>
	</g>
</g>
<g>
	<path class="st0" d="M0.8,39v-5.5h2.3c0.6,0,1.1,0.1,1.6,0.3s0.8,0.6,1,1s0.4,0.9,0.4,1.4s-0.1,1-0.4,1.4c-0.2,0.4-0.6,0.7-1,1
		S3.7,39,3.2,39H0.8z M1.6,38.3h1.5c0.5,0,0.9-0.1,1.2-0.3s0.6-0.4,0.8-0.7s0.3-0.7,0.3-1.1c0-0.4-0.1-0.8-0.3-1.1s-0.4-0.6-0.8-0.7
		c-0.3-0.2-0.7-0.3-1.2-0.3H1.6V38.3z"/>
	<path class="st0" d="M7.3,39v-5.5h2.2c0.5,0,0.9,0.1,1.2,0.2c0.3,0.2,0.6,0.4,0.8,0.7s0.3,0.6,0.3,1s-0.1,0.7-0.3,1
		s-0.4,0.5-0.8,0.7c-0.3,0.2-0.8,0.2-1.2,0.2H7.8l0.4-0.4v2L7.3,39L7.3,39z M8.1,37l-0.4-0.4h1.7c0.5,0,0.9-0.1,1.1-0.3
		c0.3-0.2,0.4-0.5,0.4-0.9s-0.1-0.7-0.4-0.9c-0.3-0.2-0.6-0.3-1.1-0.3H7.8l0.4-0.4L8.1,37L8.1,37z M11,39l-1.4-2h0.8l1.4,2H11z"/>
	<path class="st0" d="M13.1,39v-5.5h0.8V39H13.1z"/>
	<path class="st0" d="M17.1,39l-2.4-5.5h0.9l2.2,5.1h-0.5l2.2-5.1h0.8L17.8,39H17.1z"/>
	<path class="st0" d="M21,39v-5.5h0.8V39H21z"/>
	<path class="st0" d="M23.4,39v-5.5H24l3.7,4.5h-0.3v-4.5h0.8V39h-0.6l-3.7-4.5h0.3V39H23.4z"/>
	<path class="st0" d="M32.3,39c-0.4,0-0.8-0.1-1.2-0.2c-0.4-0.1-0.7-0.3-0.9-0.6c-0.3-0.3-0.5-0.6-0.6-0.9c-0.1-0.3-0.2-0.7-0.2-1.1
		s0.1-0.8,0.2-1.1s0.4-0.6,0.6-0.9c0.3-0.3,0.6-0.5,0.9-0.6c0.4-0.1,0.8-0.2,1.2-0.2s0.8,0.1,1.2,0.2s0.7,0.4,0.9,0.6L34,34.7
		c-0.2-0.2-0.5-0.4-0.7-0.5C33,34.1,32.7,34,32.4,34c-0.3,0-0.6,0.1-0.9,0.2c-0.3,0.1-0.5,0.3-0.7,0.4c-0.2,0.2-0.4,0.4-0.5,0.7
		s-0.2,0.5-0.2,0.8s0.1,0.6,0.2,0.8c0.1,0.3,0.3,0.5,0.5,0.7s0.4,0.3,0.7,0.4c0.3,0.1,0.6,0.2,0.9,0.2s0.6,0,0.8-0.1
		c0.3-0.1,0.5-0.2,0.8-0.5l0.4,0.6c-0.3,0.2-0.6,0.4-1,0.5C33.1,39,32.7,39,32.3,39z M33.6,38.2v-2.1h0.8v2.2L33.6,38.2z"/>
	<path class="st0" d="M39.4,39v-2.1l0.2,0.5l-2.4-3.9H38l2,3.3h-0.5l2-3.3h0.8L40,37.3l0.2-0.5V39H39.4z"/>
	<path class="st0" d="M45.4,39c-0.4,0-0.8-0.1-1.2-0.2c-0.4-0.1-0.7-0.3-0.9-0.6c-0.3-0.3-0.5-0.6-0.6-0.9c-0.1-0.3-0.2-0.7-0.2-1.1
		c0-0.4,0.1-0.8,0.2-1.1c0.1-0.3,0.4-0.6,0.6-0.9c0.3-0.3,0.6-0.5,0.9-0.6c0.4-0.1,0.7-0.2,1.2-0.2c0.4,0,0.8,0.1,1.2,0.2
		c0.4,0.1,0.7,0.3,0.9,0.6c0.3,0.3,0.5,0.6,0.6,0.9c0.1,0.3,0.2,0.7,0.2,1.1s-0.1,0.8-0.2,1.1c-0.1,0.3-0.3,0.6-0.6,0.9
		c-0.3,0.3-0.6,0.5-0.9,0.6C46.2,38.9,45.8,39,45.4,39z M45.4,38.3c0.3,0,0.6-0.1,0.8-0.2c0.3-0.1,0.5-0.3,0.7-0.4
		c0.2-0.2,0.3-0.4,0.4-0.7c0.1-0.3,0.2-0.5,0.2-0.8s-0.1-0.6-0.2-0.8s-0.3-0.5-0.4-0.7c-0.2-0.2-0.4-0.3-0.7-0.4
		c-0.3-0.1-0.5-0.2-0.8-0.2s-0.6,0.1-0.9,0.2c-0.3,0.1-0.5,0.3-0.7,0.4c-0.2,0.2-0.3,0.4-0.5,0.7c-0.1,0.3-0.2,0.5-0.2,0.8
		s0.1,0.6,0.2,0.8c0.1,0.3,0.3,0.5,0.5,0.7s0.4,0.3,0.7,0.4C44.8,38.3,45.1,38.3,45.4,38.3z"/>
	<path class="st0" d="M51.8,39c-0.7,0-1.3-0.2-1.7-0.6c-0.4-0.4-0.6-1-0.6-1.8v-3.1h0.8v3.1c0,0.6,0.1,1.1,0.4,1.3
		c0.3,0.3,0.7,0.4,1.1,0.4c0.5,0,0.9-0.1,1.2-0.4c0.3-0.3,0.4-0.7,0.4-1.3v-3.1h0.8v3.1c0,0.8-0.2,1.4-0.6,1.8
		C53.1,38.8,52.5,39,51.8,39z"/>
	<path class="st0" d="M55.8,39v-5.5H58c0.5,0,0.9,0.1,1.2,0.2c0.3,0.2,0.6,0.4,0.8,0.7s0.3,0.6,0.3,1s-0.1,0.7-0.3,1
		s-0.4,0.5-0.8,0.7c-0.3,0.2-0.8,0.2-1.2,0.2h-1.7l0.4-0.4v2L55.8,39L55.8,39z M56.5,37l-0.4-0.4h1.7c0.5,0,0.9-0.1,1.1-0.3
		c0.3-0.2,0.4-0.5,0.4-0.9s-0.1-0.7-0.4-0.9c-0.3-0.2-0.6-0.3-1.1-0.3h-1.7l0.4-0.4V37z M59.4,39L58,37h0.8l1.4,2H59.4z"/>
	<path class="st0" d="M63.6,39v-5.5h2.3c0.6,0,1.1,0.1,1.6,0.3s0.8,0.6,1,1s0.4,0.9,0.4,1.4s-0.1,1-0.4,1.4c-0.2,0.4-0.6,0.7-1,1
		s-1,0.3-1.6,0.3L63.6,39L63.6,39z M64.4,38.3h1.5c0.5,0,0.9-0.1,1.2-0.3s0.6-0.4,0.8-0.7s0.3-0.7,0.3-1.1c0-0.4-0.1-0.8-0.3-1.1
		s-0.4-0.6-0.8-0.7c-0.3-0.2-0.7-0.3-1.2-0.3h-1.5V38.3z"/>
	<path class="st0" d="M70.1,39v-5.5h0.8V39H70.1z"/>
	<path class="st0" d="M75.1,39c-0.4,0-0.8-0.1-1.2-0.2c-0.4-0.1-0.7-0.3-0.9-0.6c-0.3-0.3-0.5-0.6-0.6-0.9c-0.1-0.3-0.2-0.7-0.2-1.1
		s0.1-0.8,0.2-1.1s0.4-0.6,0.6-0.9c0.3-0.3,0.6-0.5,0.9-0.6c0.4-0.1,0.8-0.2,1.2-0.2c0.4,0,0.8,0.1,1.2,0.2s0.7,0.4,0.9,0.6
		l-0.5,0.5c-0.2-0.2-0.5-0.4-0.7-0.5c-0.3-0.1-0.6-0.2-0.9-0.2s-0.6,0.1-0.9,0.2c-0.3,0.1-0.5,0.3-0.7,0.4c-0.2,0.2-0.4,0.4-0.5,0.7
		s-0.2,0.5-0.2,0.8s0.1,0.6,0.2,0.8c0.1,0.3,0.3,0.5,0.5,0.7s0.4,0.3,0.7,0.4c0.3,0.1,0.6,0.2,0.9,0.2s0.6,0,0.8-0.1
		c0.3-0.1,0.5-0.2,0.8-0.5l0.4,0.6c-0.3,0.2-0.6,0.4-1,0.5C75.8,39,75.4,39,75.1,39z M76.4,38.2v-2.1h0.8v2.2L76.4,38.2z"/>
	<path class="st0" d="M78.7,39v-5.5h0.8V39H78.7z"/>
	<path class="st0" d="M82.2,39v-4.8h-1.9v-0.7h4.6v0.7H83V39H82.2z"/>
	<path class="st0" d="M84.6,39l2.5-5.5h0.8l2.5,5.5h-0.8l-2.2-5.1h0.3L85.4,39H84.6z M85.7,37.6l0.2-0.6H89l0.2,0.6H85.7z"/>
	<path class="st0" d="M91.2,39v-5.5H92v4.8h3V39H91.2z"/>
	<path class="st0" d="M98,39v-5.5h0.6l2.5,4.2h-0.3l2.4-4.2h0.6V39H103v-4.3h0.2l-2.2,3.7h-0.4l-2.2-3.7h0.2V39H98z"/>
	<path class="st0" d="M106.4,38.3h3.2V39h-4v-5.5h3.9v0.7h-3.1V38.3z M106.3,35.8h2.8v0.7h-2.8V35.8z"/>
	<path class="st0" d="M110.8,39v-5.5h2.3c0.6,0,1.1,0.1,1.6,0.3c0.4,0.2,0.8,0.6,1,1s0.4,0.9,0.4,1.4s-0.1,1-0.4,1.4
		c-0.2,0.4-0.6,0.7-1,1c-0.5,0.2-1,0.3-1.6,0.3L110.8,39L110.8,39z M111.6,38.3h1.5c0.5,0,0.9-0.1,1.2-0.3c0.3-0.2,0.6-0.4,0.8-0.7
		c0.2-0.3,0.3-0.7,0.3-1.1c0-0.4-0.1-0.8-0.3-1.1c-0.2-0.3-0.4-0.6-0.8-0.7c-0.3-0.2-0.7-0.3-1.2-0.3h-1.5V38.3z"/>
	<path class="st0" d="M117.4,39v-5.5h0.8V39H117.4z"/>
	<path class="st0" d="M119,39l2.5-5.5h0.8l2.5,5.5H124l-2.2-5.1h0.3l-2.2,5.1H119z M120,37.6l0.2-0.6h3.1l0.2,0.6H120z"/>
	<path class="st0" d="M130.2,39c-0.4,0-0.8-0.1-1.2-0.2c-0.4-0.1-0.7-0.3-0.9-0.6c-0.3-0.3-0.5-0.6-0.6-0.9
		c-0.1-0.3-0.2-0.7-0.2-1.1s0.1-0.8,0.2-1.1s0.4-0.6,0.6-0.9s0.6-0.5,0.9-0.6s0.8-0.2,1.2-0.2s0.8,0.1,1.2,0.2
		c0.4,0.1,0.7,0.4,0.9,0.6l-0.5,0.5c-0.2-0.2-0.5-0.4-0.7-0.5s-0.6-0.2-0.9-0.2c-0.3,0-0.6,0.1-0.9,0.2c-0.3,0.1-0.5,0.3-0.7,0.4
		c-0.2,0.2-0.3,0.4-0.5,0.7c-0.1,0.3-0.2,0.5-0.2,0.8s0.1,0.6,0.2,0.8c0.1,0.3,0.3,0.5,0.5,0.7s0.4,0.3,0.7,0.4
		c0.3,0.1,0.6,0.2,0.9,0.2c0.3,0,0.6,0,0.8-0.1c0.3-0.1,0.5-0.2,0.8-0.5l0.4,0.6c-0.3,0.2-0.6,0.4-1,0.5S130.6,39,130.2,39z
		 M131.5,38.2v-2.1h0.8v2.2L131.5,38.2z"/>
	<path class="st0" d="M133.8,39v-5.5h2.2c0.5,0,0.9,0.1,1.2,0.2s0.6,0.4,0.8,0.7s0.3,0.6,0.3,1s-0.1,0.7-0.3,1s-0.4,0.5-0.8,0.7
		c-0.3,0.2-0.8,0.2-1.2,0.2h-1.7l0.4-0.4v2L133.8,39L133.8,39z M134.6,37l-0.4-0.4h1.7c0.5,0,0.9-0.1,1.1-0.3
		c0.3-0.2,0.4-0.5,0.4-0.9s-0.1-0.7-0.4-0.9c-0.3-0.2-0.6-0.3-1.1-0.3h-1.7l0.4-0.4V37z M137.5,39l-1.4-2h0.8l1.4,2H137.5z"/>
	<path class="st0" d="M142,39c-0.4,0-0.8-0.1-1.2-0.2c-0.4-0.1-0.7-0.3-0.9-0.6c-0.3-0.3-0.5-0.6-0.6-0.9c-0.1-0.3-0.2-0.7-0.2-1.1
		c0-0.4,0.1-0.8,0.2-1.1c0.1-0.3,0.4-0.6,0.6-0.9c0.3-0.3,0.6-0.5,0.9-0.6s0.7-0.2,1.2-0.2c0.4,0,0.8,0.1,1.2,0.2
		c0.4,0.1,0.7,0.3,0.9,0.6s0.5,0.6,0.6,0.9c0.1,0.3,0.2,0.7,0.2,1.1s-0.1,0.8-0.2,1.1s-0.3,0.6-0.6,0.9s-0.6,0.5-0.9,0.6
		C142.8,38.9,142.4,39,142,39z M142,38.3c0.3,0,0.6-0.1,0.8-0.2c0.3-0.1,0.5-0.3,0.7-0.4c0.2-0.2,0.3-0.4,0.4-0.7
		c0.1-0.3,0.2-0.5,0.2-0.8s-0.1-0.6-0.2-0.8s-0.3-0.5-0.4-0.7c-0.2-0.2-0.4-0.3-0.7-0.4c-0.3-0.1-0.5-0.2-0.8-0.2s-0.6,0.1-0.9,0.2
		c-0.3,0.1-0.5,0.3-0.7,0.4c-0.2,0.2-0.3,0.4-0.5,0.7c-0.1,0.3-0.2,0.5-0.2,0.8s0.1,0.6,0.2,0.8c0.1,0.3,0.3,0.5,0.5,0.7
		s0.4,0.3,0.7,0.4C141.4,38.3,141.7,38.3,142,38.3z"/>
	<path class="st0" d="M147.2,39l-1.8-5.5h0.8l1.7,5.1h-0.4l1.8-5.1h0.7l1.7,5.1h-0.4l1.7-5.1h0.7l-1.8,5.5h-0.8l-1.6-4.7h0.2
		l-1.6,4.7H147.2z"/>
	<path class="st0" d="M155.9,39v-4.8H154v-0.7h4.6v0.7h-1.9V39H155.9z"/>
	<path class="st0" d="M160.2,39h-0.8v-5.5h0.8V39z M163.5,36.5h-3.3v-0.7h3.3V36.5z M163.4,33.4h0.8V39h-0.8V33.4z"/>
</g>
</svg>
