<?xml version="1.0" encoding="utf-8"?>
<!-- Generator: Adobe Illustrator 19.0.0, SVG Export Plug-In . SVG Version: 6.00 Build 0)  -->
<svg version="1.1" id="Capa_1" xmlns="http://www.w3.org/2000/svg" xmlns:xlink="http://www.w3.org/1999/xlink" x="0px" y="0px"
	 viewBox="0 0 368.3 200" style="enable-background:new 0 0 368.3 200;" xml:space="preserve">
<style type="text/css">
	.st0{fill:#9A2289;}
	.st1{fill:#32378F;}
	.st2{fill:#FFFFFF;}
</style>
<g>
	<path id="XMLID_42_" class="st0" d="M344.6,172.1h-98.2c-7.7,0-14,6.3-14,14v0c0,7.7,6.3,14,14,14h98.2c7.7,0,14-6.3,14-14v0
		C358.5,178.3,352.3,172.1,344.6,172.1z"/>
	<g>
		<path class="st1" d="M28.2,8.5v6.4h16.5l-1.4,8.5H28.2v15.1h-10V0h29.1l-1.4,8.5H28.2z"/>
		<path class="st1" d="M52.3,0h9.9L70,20.6L78.3,0h10l5.8,38.6H84l-2.8-22.2h-0.1l-9.3,22.2h-4L59,16.4h-0.1l-3.2,22.2h-10L52.3,0z"
			/>
	</g>
	<g>
		<path class="st2" d="M263.5,191.9h-3.7l-2.8-4.4v4.4h-2.9v-11.3h4.6c0.6,0,1.2,0.1,1.7,0.3c0.5,0.2,0.9,0.4,1.2,0.8
			c0.3,0.3,0.5,0.7,0.7,1.1c0.2,0.4,0.2,0.9,0.2,1.4c0,0.9-0.2,1.6-0.6,2.1c-0.4,0.5-1,0.9-1.8,1.1L263.5,191.9z M257,185.7h0.6
			c0.6,0,1-0.1,1.3-0.4c0.3-0.2,0.5-0.6,0.5-1c0-0.5-0.2-0.8-0.5-1c-0.3-0.2-0.8-0.4-1.3-0.4H257V185.7z"/>
		<path class="st2" d="M265.5,186.3c0-0.8,0.2-1.6,0.5-2.4c0.3-0.7,0.7-1.4,1.3-1.9c0.6-0.5,1.2-1,2-1.3c0.8-0.3,1.6-0.5,2.5-0.5
			c0.9,0,1.8,0.2,2.5,0.5c0.8,0.3,1.4,0.7,2,1.3c0.6,0.5,1,1.2,1.3,1.9c0.3,0.7,0.5,1.5,0.5,2.4c0,0.8-0.2,1.6-0.5,2.4
			c-0.3,0.7-0.7,1.4-1.3,1.9c-0.6,0.5-1.2,1-2,1.3s-1.6,0.5-2.5,0.5c-0.9,0-1.8-0.2-2.5-0.5c-0.8-0.3-1.4-0.7-2-1.3
			c-0.6-0.5-1-1.2-1.3-1.9C265.7,187.9,265.5,187.1,265.5,186.3z M268.6,186.3c0,0.5,0.1,0.9,0.3,1.2c0.2,0.4,0.4,0.7,0.7,1
			c0.3,0.3,0.6,0.5,1,0.7s0.8,0.2,1.2,0.2c0.4,0,0.8-0.1,1.2-0.2c0.4-0.2,0.7-0.4,1-0.7s0.5-0.6,0.7-1c0.2-0.4,0.3-0.8,0.3-1.2
			c0-0.5-0.1-0.9-0.3-1.2c-0.2-0.4-0.4-0.7-0.7-1s-0.6-0.5-1-0.7c-0.4-0.2-0.8-0.2-1.2-0.2c-0.4,0-0.8,0.1-1.2,0.2
			c-0.4,0.2-0.7,0.4-1,0.7c-0.3,0.3-0.5,0.6-0.7,1C268.7,185.4,268.6,185.8,268.6,186.3z"/>
		<path class="st2" d="M287.7,183.5c-0.3-0.3-0.6-0.5-1-0.6c-0.3-0.1-0.6-0.2-0.9-0.2c-0.4,0-0.7,0.1-0.9,0.3
			c-0.2,0.2-0.4,0.4-0.4,0.7c0,0.2,0.1,0.4,0.2,0.5c0.1,0.1,0.3,0.2,0.5,0.3c0.2,0.1,0.4,0.2,0.7,0.2c0.2,0.1,0.5,0.1,0.7,0.2
			c1,0.3,1.7,0.7,2.1,1.3c0.4,0.5,0.7,1.2,0.7,2.1c0,0.6-0.1,1.1-0.3,1.6c-0.2,0.5-0.5,0.9-0.9,1.2c-0.4,0.3-0.8,0.6-1.4,0.8
			c-0.5,0.2-1.2,0.3-1.9,0.3c-1.4,0-2.8-0.4-4-1.3l1.3-2.4c0.4,0.4,0.9,0.7,1.3,0.9c0.4,0.2,0.9,0.3,1.3,0.3c0.5,0,0.8-0.1,1.1-0.3
			c0.2-0.2,0.4-0.5,0.4-0.8c0-0.2,0-0.3-0.1-0.4c-0.1-0.1-0.2-0.2-0.3-0.3c-0.1-0.1-0.3-0.2-0.5-0.3c-0.2-0.1-0.5-0.2-0.8-0.3
			c-0.4-0.1-0.8-0.3-1.1-0.4c-0.4-0.1-0.7-0.3-1-0.6c-0.3-0.2-0.5-0.5-0.7-0.9c-0.2-0.4-0.3-0.8-0.3-1.4c0-0.6,0.1-1.1,0.3-1.5
			c0.2-0.5,0.4-0.8,0.8-1.2c0.3-0.3,0.7-0.6,1.2-0.8c0.5-0.2,1-0.3,1.6-0.3c0.6,0,1.1,0.1,1.8,0.2c0.6,0.2,1.2,0.4,1.8,0.7
			L287.7,183.5z"/>
		<path class="st2" d="M299.4,190h-4.2l-0.7,2h-3.1l4.3-11.3h3.2l4.3,11.3h-3.1L299.4,190z M298.6,187.7l-1.3-3.8l-1.3,3.8H298.6z"
			/>
		<path class="st2" d="M315.4,191.9h-3.7l-2.8-4.4v4.4H306v-11.3h4.6c0.6,0,1.2,0.1,1.7,0.3c0.5,0.2,0.9,0.4,1.2,0.8
			c0.3,0.3,0.5,0.7,0.7,1.1c0.2,0.4,0.2,0.9,0.2,1.4c0,0.9-0.2,1.6-0.6,2.1c-0.4,0.5-1,0.9-1.8,1.1L315.4,191.9z M309,185.7h0.6
			c0.6,0,1-0.1,1.3-0.4c0.3-0.2,0.5-0.6,0.5-1c0-0.5-0.2-0.8-0.5-1c-0.3-0.2-0.8-0.4-1.3-0.4H309V185.7z"/>
		<path class="st2" d="M321.1,180.6v11.3h-2.9v-11.3H321.1z"/>
		<path class="st2" d="M324.5,186.3c0-0.8,0.2-1.6,0.5-2.4c0.3-0.7,0.7-1.4,1.3-1.9c0.6-0.5,1.2-1,2-1.3c0.8-0.3,1.6-0.5,2.5-0.5
			c0.9,0,1.8,0.2,2.5,0.5c0.8,0.3,1.4,0.7,2,1.3c0.6,0.5,1,1.2,1.3,1.9c0.3,0.7,0.5,1.5,0.5,2.4c0,0.8-0.2,1.6-0.5,2.4
			c-0.3,0.7-0.7,1.4-1.3,1.9c-0.6,0.5-1.2,1-2,1.3s-1.6,0.5-2.5,0.5c-0.9,0-1.8-0.2-2.5-0.5c-0.8-0.3-1.4-0.7-2-1.3
			c-0.6-0.5-1-1.2-1.3-1.9C324.7,187.9,324.5,187.1,324.5,186.3z M327.6,186.3c0,0.5,0.1,0.9,0.3,1.2c0.2,0.4,0.4,0.7,0.7,1
			c0.3,0.3,0.6,0.5,1,0.7s0.8,0.2,1.2,0.2c0.4,0,0.8-0.1,1.2-0.2c0.4-0.2,0.7-0.4,1-0.7s0.5-0.6,0.7-1c0.2-0.4,0.3-0.8,0.3-1.2
			c0-0.5-0.1-0.9-0.3-1.2c-0.2-0.4-0.4-0.7-0.7-1s-0.6-0.5-1-0.7c-0.4-0.2-0.8-0.2-1.2-0.2c-0.4,0-0.8,0.1-1.2,0.2
			c-0.4,0.2-0.7,0.4-1,0.7c-0.3,0.3-0.5,0.6-0.7,1C327.7,185.4,327.6,185.8,327.6,186.3z"/>
	</g>
	<g>
		<path class="st1" d="M119.1,36.9l8.5-11.6l-0.1-0.1c-0.5,0.2-1,0.3-1.5,0.4c-0.5,0.1-1.1,0.1-1.6,0.1c-3.3,0-6.2-1.2-8.4-3.6
			c-2.3-2.4-3.4-5.2-3.4-8.6c0-3.5,1.2-6.4,3.7-8.9c2.5-2.4,5.5-3.7,8.9-3.7c3.5,0,6.5,1.2,8.9,3.7c2.5,2.4,3.7,5.4,3.7,8.9
			c0,1.7-0.3,3.2-1,4.7c-0.7,1.4-1.5,2.8-2.4,4.2L122.2,39L119.1,36.9z M119,7.4c-1.7,1.7-2.5,3.7-2.5,6.1c0,2.4,0.8,4.4,2.5,6
			c1.7,1.6,3.7,2.5,6.1,2.5c2.4,0,4.4-0.8,6.1-2.5c1.7-1.6,2.5-3.6,2.5-6c0-2.4-0.8-4.4-2.5-6.1c-1.7-1.7-3.7-2.5-6.1-2.5
			C122.7,4.9,120.7,5.7,119,7.4z"/>
		<path class="st1" d="M142.7,5.5V1.7h27.1L145.2,39l-3.2-1.9l20.8-31.7H142.7z"/>
		<path class="st1" d="M179.7,34.4c0.5,0.5,0.8,1.2,0.8,1.9c0,0.7-0.3,1.4-0.8,1.9c-0.5,0.5-1.2,0.8-1.9,0.8c-0.7,0-1.4-0.3-1.9-0.8
			c-0.5-0.5-0.8-1.2-0.8-1.9c0-0.8,0.3-1.4,0.8-1.9c0.5-0.5,1.2-0.8,1.9-0.8C178.5,33.6,179.1,33.9,179.7,34.4z"/>
		<path class="st1" d="M194.1,36.9l8.5-11.6l-0.1-0.1c-0.5,0.2-1,0.3-1.5,0.4c-0.5,0.1-1.1,0.1-1.6,0.1c-3.3,0-6.2-1.2-8.5-3.6
			c-2.3-2.4-3.4-5.2-3.4-8.6c0-3.5,1.2-6.4,3.7-8.9c2.5-2.4,5.5-3.7,8.9-3.7c3.5,0,6.5,1.2,8.9,3.7c2.5,2.4,3.7,5.4,3.7,8.9
			c0,1.7-0.3,3.2-1,4.7c-0.7,1.4-1.5,2.8-2.4,4.2L197.2,39L194.1,36.9z M194,7.4c-1.7,1.7-2.5,3.7-2.5,6.1c0,2.4,0.8,4.4,2.5,6
			c1.7,1.6,3.7,2.5,6.1,2.5c2.4,0,4.4-0.8,6.1-2.5c1.7-1.6,2.5-3.6,2.5-6c0-2.4-0.8-4.4-2.5-6.1s-3.7-2.5-6.1-2.5
			C197.7,4.9,195.7,5.7,194,7.4z"/>
	</g>
	<g>
		<path id="XMLID_21_" class="st0" d="M2.3,112.7c0.2-0.7-2.8-9.8,3.6-22.5c2.6-5.2,6.4-8,7.8-10.4c0.6-1.1,0.8-2.9-0.3-3.5
			c-1-0.5-2.2-0.4-3.7,0.8c-2.6,2-6.4,6.8-8.1,12.6C-2.2,102.5,1.9,114.1,2.3,112.7z"/>
		<path id="XMLID_20_" class="st0" d="M36.5,126.1c0,0-11-0.8-18.8-5.9c-6.3-4.1-10.2-12.3-0.1-26.7c0,0,0,0,0,0
			c8.2-10.5,18.9-15.2,26.1-20.3c5.2-3.1,5.5-6,3.8-8.1c-1.6-1.9-7.5-0.8-15,4.6c-4.6,3.4-16,13.6-20.6,20.8
			C10.3,92.8-3.4,113.8,16,122c2.3,1,7.2,3.4,17,4.4C35,126.6,35.9,126.4,36.5,126.1z"/>
		<path id="XMLID_19_" class="st1" d="M339.4,121.6C339.4,121.6,339.4,121.6,339.4,121.6C339.5,121.6,339.4,121.6,339.4,121.6z"/>
		<path id="XMLID_18_" class="st0" d="M363.3,98.6c-0.1-0.1-0.3,0-0.3,0.1c1.1,3.1,3.9,12.8-0.8,23.7c-0.7,1.5-1.6,3-2.4,4.5
			c-1.6,3-3.4,4.3-4.7,6.9c-0.6,1.2-0.5,3,0.9,3.3c1.3,0.3,2.7-0.1,4.4-1.6c2.9-2.6,5.6-7.7,7.1-13.7
			C369.1,115.7,368.5,105.9,363.3,98.6z"/>
		<path id="XMLID_17_" class="st1" d="M329.8,66c0,0,0,0.2,0.2,0.5c14.1,6.3,36.5,24.3,16,54.4c0,0,0,0,0,0
			c-11,13.3-26.1,20-36,26.9c-7.2,4.3-7.4,7.7-4.7,9.9c2.5,2,11.1,0,21.4-7.2c8.4-5.9,29.8-21,33.1-39.2
			C363.1,92.7,357.7,74,329.8,66z"/>
		<path id="XMLID_16_" class="st0" d="M329.8,66c0,0,0,0.2,0.2,0.5c14.1,6.3,36.5,24.3,16,54.4c0,0,0,0,0,0
			c-11,13.3-26.1,20-36,26.9c-7.2,4.3-7.4,7.7-4.7,9.9c2.5,2,11.1,0,21.4-7.2c8.4-5.9,29.8-21,33.1-39.2
			C363.1,92.7,357.7,74,329.8,66z"/>
		<g>
			<path id="XMLID_15_" class="st2" d="M344.3,136.3L344.3,136.3c-4.2,4-8.5,7.5-12.1,10.2c5.7,1,11.2,2.2,16.6,3.5
				C347.3,145.4,345.8,140.9,344.3,136.3z"/>
			<path id="XMLID_14_" class="st2" d="M123,158.1c0.5,0,1-0.1,1.6-0.1c0.8-0.1,1.7-0.1,2.5-0.2c0.4,0,0.7-0.1,1.1-0.1
				c0.9-0.1,1.7-0.1,2.6-0.2c0.4,0,0.8-0.1,1.2-0.1c0.9-0.1,1.7-0.2,2.6-0.2c0.4,0,0.8-0.1,1.3-0.1c0.9-0.1,1.7-0.2,2.6-0.3
				c0.5-0.1,1.1-0.1,1.7-0.2c0.8-0.1,1.6-0.2,2.4-0.2c0.6-0.1,1.3-0.1,2-0.2c0.7-0.1,1.4-0.2,2.2-0.2c0.9-0.1,1.8-0.2,2.6-0.3
				c0.5-0.1,1.1-0.1,1.6-0.2c1.5-0.2,2.9-0.3,4.5-0.5V88.7c-12.2,1.5-22.6,2.5-32.3,3.3V158.1z"/>
			<path id="XMLID_13_" class="st2" d="M122.7,67.3c0,3.3,0.1,6.3,0.1,9.1c0.1,2.2,0.1,4.5,0.1,6.9c9.7-0.8,20.1-1.8,32.3-3.3V58.5
				c-10.1,1.2-21.1,2.4-32.6,3.3V67.3z"/>
			<path id="XMLID_12_" class="st2" d="M73.7,107.2L73.7,107.2c-0.4,1.3-0.7,2.4-1,3.4c-0.1,0.3-0.2,0.7-0.3,1c0,0,0,0.1,0,0.1
				c-0.1,0.3-0.2,0.6-0.2,0.8c0,0,0,0.1,0,0.1c-0.1,0.3-0.2,0.6-0.2,0.9c0,0,0,0,0,0c-0.1,0.3-0.2,0.6-0.3,0.9c-0.3,1-0.6,2.1-1,3.4
				l-2.3,8l-2.1-9.1c-0.8-3.4-1.2-5.3-2.5-9.9c-3.4-11.7-6.7-23.5-10-35.3c-1-3.4-1.9-6.8-2.9-10.3c0,0,0,0,0,0
				c-0.5-0.1-1-0.1-1.5-0.2c0.2,0,0.5,0.1,0.7,0.1c-0.9-0.1-1.7-0.2-2.6-0.3c-1.8-0.2-3.7-0.5-5.5-0.7c-0.8-0.1-1.6-0.3-2.3-0.4
				c-6.2-1-12.3-2.1-18.3-3.5c-1.1-0.3-2.2-0.5-3.3-0.8c0,0,0,0,0,0c-0.1,0-0.2,0-0.3-0.1c2.1,5.9,4.2,11.8,6.3,17.7
				c0.3,1,0.7,1.9,1,2.9c3-2.8,5.8-5.1,7.6-6.4c7.5-5.4,13.4-6.6,15-4.6c1.2,1.4,1.4,3.2-0.2,5.2c0.3,0.1,0.6,0.3,0.8,0.6
				c1.7,2.1,1.4,5-3.8,8.1c-4.2,3-9.5,5.8-14.9,9.7c0,0,0,0,0,0c2.1,5.9,3.5,9.6,5.6,15.6c0.4,1.1,0.8,2.2,1.2,3.3
				c6.1,16.8,12.3,33.7,18.6,50.6c9,0.9,18.2,1.4,28,1.5c2.6-6.6,5.1-13.2,7.7-19.8c9.2-23.6,18.7-48,28.2-73.2l1.8-4.7
				c-10.9,0.8-22.2,1.3-33.8,1.3C82.3,77.9,78,92.6,73.7,107.2z"/>
			<path class="st2" d="M339.3,121.1c-0.3-1-0.6-1.9-1-2.9c-7.7-23.3-15.7-46.9-23.8-70.5h0c0,0,0-0.1,0-0.1
				c-11.9-1.3-24.1-1.9-37.3-1.8c-4.2,12.1-8.4,24-12.7,36.5c-0.7,1.9-1.3,3.9-2,5.8c-0.1,0.3-0.2,0.7-0.3,1
				c-0.8,2.2-1.5,4.5-2.3,6.8l-1.8,5.1c0,0,0-0.1,0-0.2l-0.1,0.5l0.1-5.2c0-15.2-4.4-26.7-13.1-34.4c-0.7-0.6-1.4-1.1-2.1-1.7
				c-0.2-0.2-0.5-0.3-0.7-0.5c-0.5-0.4-1-0.7-1.5-1c-0.3-0.2-0.6-0.4-0.9-0.5c-0.5-0.3-1-0.6-1.5-0.8c-0.3-0.2-0.6-0.3-1-0.5
				c-0.5-0.3-1-0.5-1.5-0.7c-0.3-0.2-0.7-0.3-1-0.4c-0.5-0.2-1.1-0.4-1.6-0.6c-0.3-0.1-0.7-0.3-1-0.4c-0.6-0.2-1.2-0.4-1.8-0.6
				c-0.3-0.1-0.7-0.2-1-0.3c-0.7-0.2-1.4-0.4-2.1-0.5c-0.3-0.1-0.5-0.1-0.8-0.2c-1-0.2-2-0.4-3-0.6c-6.8-1.1-14.4-1.1-22.7,0
				c-5.5,0.7-11,1.4-16.5,2.2c-6.3,0.8-12.6,1.7-18.9,2.5v96.3c6.1-0.8,12.2-1.6,18.3-2.4c8.4-1.1,17.1-2.2,25.6-3.3
				c16.6-2.1,30.4-9.5,39-21l0.4-0.5l1.7-2.2c0,0,0,0,0,0.1c0.1-0.1,0.1-0.2,0.1-0.2l-1.5,4.4c-1.7,5.1-3.5,10.3-5.2,15.4
				c12.2-0.9,23.4-1.4,34-1.5l2.9-12.6l1.7,0c9.6,0.1,19,0.5,27.8,1.4l1.5,0.1l2.2,8.4c7.9-4.8,17.4-10.1,25.5-18.1
				C339.3,121.3,339.3,121.2,339.3,121.1z M207.5,121.6L207.5,121.6c-0.3,0.1-0.6,0.1-1,0.2c-0.5,0.1-1,0.2-1.5,0.3
				c-0.9,0.2-1.8,0.3-2.7,0.4l0,0l-2.3,0.3l-2.3,0.3V79.9l2.1-0.3l2.1-0.3c1-0.1,1.9-0.2,2.9-0.3c6.5-0.4,11.6,1,15.2,4.2
				c0.4,0.4,0.9,0.8,1.2,1.3c0.1,0.1,0.2,0.3,0.4,0.4c0.3,0.3,0.5,0.6,0.7,1c0.1,0.2,0.3,0.4,0.4,0.6c0.2,0.3,0.4,0.7,0.6,1
				c0.1,0.2,0.2,0.4,0.3,0.6c0.2,0.4,0.4,0.8,0.5,1.2c0.1,0.2,0.2,0.4,0.2,0.6c0.2,0.6,0.4,1.2,0.6,1.8c0.1,0.2,0.1,0.4,0.1,0.6
				c0.1,0.5,0.2,0.9,0.3,1.4c0,0.3,0.1,0.6,0.1,0.9c0,0.2,0.1,0.5,0.1,0.7c0,0,0,0,0-0.1c0.1,1.2,0.2,2.4,0.2,3.7
				C225.7,110.5,219.2,118.5,207.5,121.6z M306.3,111l-0.4,0v0l-2.4-0.2c-2.2-0.2-4.5-0.3-6.7-0.4c-2.6-0.1-5.2-0.2-7.9-0.3
				l-2.6-0.1l0.6-2.5c0.6-2.6,1.2-5.2,1.8-7.8c0.6-2.6,1.2-5.2,1.9-7.7c1.2-4.9,2.4-9.9,3.5-14.9l0.2-0.9l0.2-0.9l1.7,0l1.7,0
				l0.4,1.5c0.5,1.9,1.1,4.3,1.7,6.8c0.2,0.8,0.4,1.6,0.6,2.5c0.5,1.9,0.9,3.7,1.3,5.3c0.1,0.3,0.1,0.6,0.2,0.9
				c0.7,2.8,1.2,5.3,1.8,7.8c0.6,2.5,1.2,5.1,1.9,8l0.5,2.2L306.3,111L306.3,111z"/>
		</g>
		<path class="st1" d="M338.3,118.2c0.4,1.1,0.7,2.2,1.1,3.3c0.6-0.6,1.2-1.3,1.8-1.9c0.5-0.5,0.9-1,1.4-1.5c0,0,0.1-0.1,0.1-0.1
			c0,0,0,0,0,0c0.3-0.4,0.6-0.7,0.9-1.1c0,0,0,0,0,0c0.5-0.7,0.9-1.3,1.3-1.9c-6.7-20.2-13.6-40.4-20.9-61.9l-1.1-3.2
			c-0.3-0.8-1-1.4-1.9-1.5l-1.9-0.2l-1.1-3.2c-0.3-0.8-1-1.4-1.9-1.5l-2.4-0.3c-12.9-1.3-23.4-1.7-35.9-1.7l-2.2,0
			c-0.9,0-1.8,0.6-2.1,1.5l-1.8,5c-3.7,10.7-6.1,17.9-9.6,28.2c-2.4-5-5.6-9.3-9.6-12.9c-0.2-0.2-0.4-0.3-0.6-0.5
			c-1.3-1.6-2.7-3-4.3-4.4c-10.9-9.5-27.3-13.1-47.5-10.4c-5.5,0.7-11,1.4-16.5,2.2c-4,0.5-7.9,1-11.9,1.6c-2,0.3-6.3,0.8-8.8,1.1
			c-1.1,0.1-1.9,1.1-1.9,2.2v3.8c-0.5,0.1-1,0.1-1.5,0.2v-3c0-1.3-1.1-2.3-2.4-2.1c-10.6,1.3-22.2,2.6-34.5,3.5l-0.7,0.1
			c-10.2,0.8-31.3,1.3-37.1,1.4c-0.9,0-1.7,0.6-1.9,1.5c-1.7,6-8.4,28.7-12.5,42.5C67,90.9,64,80.6,60.3,67.5l-1-3.8
			c-0.2-0.9-1-1.5-1.9-1.6l-2.2-0.2l-0.8-3c-0.2-0.9-1-1.5-1.9-1.6l-2.4-0.3c-13.1-1.4-23.4-3.5-35.4-6.6l0,0
			c-1.7-0.4-3.1,1.2-2.6,2.8c3.2,9,6.2,17.6,9.3,26.2c1.1-1.1,2.3-2.2,3.4-3.2c-0.3-1-0.7-1.9-1-2.9c-2.1-5.9-4.2-11.8-6.3-17.7
			c0.1,0,0.2,0,0.3,0.1c0,0,0,0,0,0c1.1,0.3,2.2,0.5,3.3,0.8c6,1.4,12.1,2.5,18.3,3.5c0.8,0.1,1.6,0.3,2.3,0.4
			c1.8,0.3,3.7,0.5,5.5,0.7c0.9,0.1,1.7,0.2,2.6,0.3c-0.3,0-0.5-0.1-0.7-0.1c0.5,0.1,1,0.1,1.5,0.2c0,0,0,0,0,0
			c1,3.4,1.9,6.8,2.9,10.3c3.3,11.8,6.7,23.6,10,35.3c1.3,4.6,1.8,6.5,2.5,9.9l2.1,9.1l2.3-8c0.4-1.3,0.7-2.4,1-3.4
			c0.1-0.3,0.2-0.6,0.3-0.9c0,0,0,0,0,0c0.1-0.3,0.2-0.6,0.2-0.9c0,0,0-0.1,0-0.1c0.1-0.3,0.2-0.6,0.2-0.8c0,0,0-0.1,0-0.1
			c0.1-0.3,0.2-0.6,0.3-1c0.3-1,0.6-2,1-3.4l0,0c4.3-14.6,8.6-29.2,12.9-43.9c11.6,0,22.9-0.5,33.8-1.3l-1.8,4.7
			c-9.5,25.2-19,49.6-28.2,73.2c-2.6,6.6-5.1,13.2-7.7,19.8c-9.8-0.1-19-0.6-28-1.5c-6.3-16.9-12.5-33.8-18.6-50.6
			c-0.4-1.1-0.8-2.2-1.2-3.3c-2.2-6-3.5-9.6-5.6-15.6c0,0,0,0,0,0c-0.3,0.2-0.5,0.4-0.8,0.6c-0.1,0.1-0.2,0.2-0.3,0.3c0,0,0,0,0,0
			c-0.8,0.6-1.6,1.2-2.4,1.9c7.7,21.5,14.6,40.4,23.4,63.9l2,5.5c0.3,0.8,1,1.4,1.9,1.4l1.8,0.2l1.2,3.3c0.3,0.8,1,1.4,1.9,1.4
			l4,0.4c9.5,0.8,13.3,1,24.3,1.3l2.8,0c0.9,0,1.8-0.6,2.1-1.4l2.6-6.8c2.8-7.1,2.9-7.3,5.6-14.3c6.4-16.4,12.9-33.2,19.5-50.3v64.5
			c0,1.2,1.1,2.2,2.3,2.1c0.9-0.1,1.7-0.1,2.6-0.2v2.9c0,1.2,1.1,2.2,2.3,2.1c10.8-0.9,14.8-1.1,29.1-2.8l7.6-0.9
			c1.1-0.1,1.9-1,1.9-2.1l0-3.8c0.5-0.1,1-0.1,1.5-0.2v3.1c0,1.3,1.1,2.3,2.4,2.1c6.9-0.9,13.8-1.8,20.8-2.7
			c8.4-1.1,17-2.2,25.6-3.3c9.6-1.2,18.4-4.1,25.9-8.6c0.1,0,0.2,0,0.3,0c1.2-0.1,2.3-0.2,3.4-0.3c-0.3,0.8-0.5,1.5-0.8,2.3v0
			c-0.5,1.5,0.7,2.9,2.2,2.8c14-1.2,22.6-1.7,34.5-1.7l4,0c1,0,1.9-0.7,2.2-1.7l2.1-9.1c0.2-1,1.2-1.7,2.2-1.7
			c6.4,0.1,12.7,0.4,18.8,0.9l0.6,2.5c1.1-0.7,2.2-1.4,3.4-2.1c0.1-0.1,0.2-0.1,0.4-0.2l-2.2-8.7l-1.5-0.1
			c-8.9-0.8-18.2-1.3-27.8-1.4l-1.7,0l-2.9,12.6c-10.6,0-21.7,0.5-34,1.5c1.7-5.1,3.5-10.3,5.2-15.4l1.5-4.4c0,0,0,0.1-0.1,0.2
			c0,0,0,0,0-0.1l-1.7,2.2l-0.4,0.5c-8.6,11.5-22.5,18.9-39,21c-8.5,1-17.2,2.2-25.6,3.3c-6.1,0.8-12.2,1.6-18.3,2.4V56.9
			c6.3-0.8,12.6-1.6,18.9-2.5c5.5-0.7,11-1.4,16.5-2.2c8.3-1.1,15.9-1.1,22.7,0c1,0.2,2,0.4,3,0.6c0.3,0.1,0.5,0.1,0.8,0.2
			c0.7,0.2,1.4,0.3,2.1,0.5c0.3,0.1,0.7,0.2,1,0.3c0.6,0.2,1.2,0.4,1.8,0.6c0.3,0.1,0.7,0.2,1,0.4c0.6,0.2,1.1,0.4,1.6,0.6
			c0.3,0.1,0.7,0.3,1,0.4c0.5,0.2,1,0.5,1.5,0.7c0.3,0.2,0.6,0.3,1,0.5c0.5,0.3,1,0.6,1.5,0.8c0.3,0.2,0.6,0.3,0.9,0.5
			c0.5,0.3,1,0.7,1.5,1c0.2,0.2,0.5,0.3,0.7,0.5c0.7,0.5,1.4,1.1,2.1,1.7c8.7,7.6,13.1,19.2,13.1,34.4l-0.1,5.2l0.1-0.5
			c0,0.1,0,0.2,0,0.2l1.8-5.1c0.8-2.3,1.6-4.5,2.3-6.8c0.1-0.3,0.2-0.7,0.3-1c0.7-2,1.3-3.9,2-5.8c4.3-12.4,8.5-24.4,12.7-36.5
			c13.2-0.1,25.5,0.5,37.3,1.8c0,0,0,0.1,0,0.1h0C322.7,71.4,330.6,95,338.3,118.2z M155.3,154.8c-1.5,0.2-3,0.4-4.5,0.5
			c-0.6,0.1-1.1,0.1-1.6,0.2c-0.9,0.1-1.8,0.2-2.6,0.3c-0.7,0.1-1.5,0.2-2.2,0.2c-0.7,0.1-1.3,0.1-2,0.2c-0.8,0.1-1.6,0.2-2.4,0.2
			c-0.5,0.1-1.1,0.1-1.7,0.2c-0.9,0.1-1.7,0.2-2.6,0.3c-0.4,0-0.8,0.1-1.3,0.1c-0.9,0.1-1.7,0.2-2.6,0.2c-0.4,0-0.8,0.1-1.2,0.1
			c-0.9,0.1-1.7,0.2-2.6,0.2c-0.4,0-0.8,0.1-1.1,0.1c-0.8,0.1-1.7,0.1-2.5,0.2c-0.5,0-1,0.1-1.6,0.1V91.9c9.7-0.8,20.1-1.8,32.3-3.3
			V154.8z M155.3,80.1c-12.3,1.5-22.6,2.5-32.3,3.3c0-2.5-0.1-4.7-0.1-6.9c-0.1-2.9-0.1-5.8-0.1-9.1v-5.6
			c11.5-0.9,22.5-2.1,32.6-3.3V80.1z"/>
		<path class="st1" d="M205,122.2c0.5-0.1,1-0.2,1.5-0.3c0.3-0.1,0.7-0.1,1-0.2v0c11.6-3.1,18.2-11.1,18.2-22.5
			c0-1.3-0.1-2.5-0.2-3.7c0,0,0,0,0,0.1c0-0.3-0.1-0.5-0.1-0.7c0-0.3-0.1-0.6-0.1-0.9c-0.1-0.5-0.2-0.9-0.3-1.4
			c0-0.2-0.1-0.4-0.1-0.6c-0.2-0.6-0.4-1.3-0.6-1.8c-0.1-0.2-0.2-0.4-0.2-0.6c-0.2-0.4-0.3-0.8-0.5-1.2c-0.1-0.2-0.2-0.4-0.3-0.6
			c-0.2-0.3-0.4-0.7-0.6-1c-0.1-0.2-0.2-0.4-0.4-0.6c-0.2-0.3-0.5-0.7-0.7-1c-0.1-0.1-0.2-0.3-0.4-0.4c-0.4-0.4-0.8-0.9-1.2-1.3
			c-3.6-3.1-8.7-4.5-15.2-4.2c-0.9,0.1-1.9,0.1-2.9,0.3l-2.1,0.3l-2.1,0.3v43.3l2.3-0.3l2.3-0.3l0,0
			C203.3,122.5,204.2,122.4,205,122.2z M207.5,89.3c0-0.4,0.3-0.8,0.7-0.8c1-0.1,2.9-0.3,3.8-0.3c2.8,0,5.3,0.4,7.3,1.2
			c1.4,2.5,2.1,5.7,2.1,9.7c0,11.2-7.2,16-13.9,18.1V89.3z"/>
		<path class="st1" d="M306.3,111L306.3,111l-0.1-0.6l-0.5-2.2c-0.7-2.9-1.3-5.4-1.9-8c-0.6-2.5-1.2-5-1.8-7.8
			c-0.1-0.3-0.1-0.6-0.2-0.9c-0.4-1.6-0.8-3.4-1.3-5.3c-0.2-0.8-0.4-1.6-0.6-2.5c-0.6-2.4-1.2-4.9-1.7-6.8l-0.4-1.5l-1.7,0l-1.7,0
			l-0.2,0.9l-0.2,0.9c-1.1,5-2.3,10-3.5,14.9c-0.6,2.5-1.2,5.1-1.9,7.7c-0.6,2.6-1.2,5.2-1.8,7.8l-0.6,2.5l2.6,0.1
			c2.6,0.1,5.3,0.2,7.9,0.3c2.3,0.1,4.5,0.2,6.7,0.4l2.4,0.2v0L306.3,111z M299.7,106.3c-1-0.1-2.1-0.1-3.1-0.1
			c0.7-2.6,1.4-5.1,2-7.9c0-0.1,0.1-0.3,0.1-0.5c0.3,1.2,0.5,2.3,0.8,3.4c0.3,1.3,0.6,2.7,1,4.1
			C300.7,105.8,300.3,106.3,299.7,106.3z"/>
		<path id="XMLID_1_" class="st1" d="M350,130.1c-1.8,2.2-3.7,4.2-5.7,6.1c1.5,4.6,3,9.2,4.5,13.7c-5.4-1.3-11-2.5-16.6-3.5
			c-2.1,1.6-4,2.9-5.4,3.9c-1.6,1.1-3.2,2.1-4.8,3c12.5,1.4,22.7,3.4,34.4,6.5l0,0c1.6,0.4,3.1-1.1,2.6-2.7
			C355.9,148.1,353,139.1,350,130.1z"/>
	</g>
</g>
</svg>
