<?xml version="1.0" encoding="utf-8"?>
<!-- Generator: Adobe Illustrator 23.0.3, SVG Export Plug-In . SVG Version: 6.00 Build 0)  -->
<svg version="1.1" id="Capa_1" xmlns="http://www.w3.org/2000/svg" xmlns:xlink="http://www.w3.org/1999/xlink" x="0px" y="0px"
	 viewBox="0 0 82 100" style="enable-background:new 0 0 82 100;" xml:space="preserve">
<style type="text/css">
	.st0{fill:#666A6D;}
	.st1{fill:#F8A32F;}
</style>
<g>
	<g>
		<path class="st0" d="M-0.1,88.39h2.86v1.96H2.8c0.62-1.15,1.3-2.26,3.11-2.26c0.19,0,0.38,0.02,0.58,0.04v3.03
			c-0.26-0.04-0.58-0.04-0.85-0.04c-2.33,0-2.75,1.45-2.75,2.71v5.91H-0.1V88.39z"/>
		<path class="st0" d="M16.56,97.52c0,1.34,0.3,1.64,0.66,1.77v0.45H14c-0.17-0.53-0.21-0.7-0.28-1.34
			c-0.68,0.7-1.64,1.64-3.67,1.64c-1.71,0-3.46-0.96-3.46-3.31c0-2.22,1.41-3.35,3.31-3.63l2.69-0.41c0.47-0.06,1.05-0.26,1.05-0.9
			c0-1.26-1.19-1.32-1.96-1.32c-1.49,0-1.75,0.92-1.83,1.58H6.96c0.34-3.48,2.75-3.97,5.08-3.97c1.6,0,4.52,0.49,4.52,3.29V97.52z
			 M13.64,94.22c-0.3,0.23-0.79,0.43-2.03,0.62c-1.11,0.19-2.03,0.47-2.03,1.71c0,1.05,0.81,1.36,1.39,1.36
			c1.32,0,2.67-0.85,2.67-2.24V94.22z"/>
		<path class="st0" d="M28.74,99.74h-2.92v-1.43h-0.04c-0.73,1.28-2.05,1.73-3.29,1.73c-3.37,0-4.78-2.99-4.78-6.1
			c0-3.93,2.22-5.85,4.71-5.85c1.92,0,2.82,1.05,3.29,1.77h0.04v-5.44h2.99V99.74z M23.24,97.59c1.9,0,2.65-1.58,2.65-3.26
			c0-1.81-0.51-3.65-2.56-3.65c-1.9,0-2.54,1.69-2.54,3.48C20.79,95.5,21.32,97.59,23.24,97.59z"/>
		<path class="st0" d="M33.65,87.05h-2.99v-2.77h2.99V87.05z M33.65,88.39v11.35h-2.99V88.39H33.65z"/>
		<path class="st0" d="M40.82,100.04c-3.05,0-5.8-1.88-5.8-5.97c0-4.1,2.75-5.97,5.8-5.97c3.05,0,5.8,1.88,5.8,5.97
			C46.62,98.16,43.87,100.04,40.82,100.04z M40.82,90.61c-2.3,0-2.73,2-2.73,3.46c0,1.45,0.43,3.46,2.73,3.46
			c2.3,0,2.73-2.01,2.73-3.46C43.55,92.62,43.12,90.61,40.82,90.61z"/>
	</g>
	<g>
		<path class="st1" d="M58.18,99.74h-2.92v-1.43h-0.04c-0.73,1.28-2.05,1.73-3.29,1.73c-3.37,0-4.78-2.99-4.78-6.1
			c0-3.93,2.22-5.85,4.71-5.85c1.92,0,2.82,1.05,3.29,1.77h0.04v-5.44h2.99V99.74z M52.68,97.59c1.9,0,2.65-1.58,2.65-3.26
			c0-1.81-0.51-3.65-2.56-3.65c-1.9,0-2.54,1.69-2.54,3.48C50.22,95.5,50.76,97.59,52.68,97.59z"/>
		<path class="st1" d="M65.16,100.04c-3.05,0-5.8-1.88-5.8-5.97c0-4.1,2.75-5.97,5.8-5.97c3.05,0,5.8,1.88,5.8,5.97
			C70.96,98.16,68.21,100.04,65.16,100.04z M65.16,90.61c-2.3,0-2.73,2-2.73,3.46c0,1.45,0.43,3.46,2.73,3.46
			c2.3,0,2.73-2.01,2.73-3.46C67.89,92.62,67.46,90.61,65.16,90.61z"/>
		<path class="st1" d="M78.64,91.85c-0.13-0.73-0.38-1.49-2.01-1.49c-1.62,0-1.83,0.62-1.83,1.11c0,1.79,7.1,0.49,7.1,4.67
			c0,3.31-3.2,3.9-4.97,3.9c-2.58,0-5.38-0.9-5.46-3.93h3.07c0,0.96,0.6,1.66,2.47,1.66c1.54,0,1.9-0.75,1.9-1.17
			c0-1.9-7.04-0.47-7.04-4.71c0-1.66,1.05-3.8,4.59-3.8c2.22,0,4.86,0.56,5.1,3.75H78.64z"/>
	</g>
	<path class="st1" d="M-0.01,0.04v81.83h81.83V0.04H-0.01z M20.69,18.5c3.42-6.5,9.49-9.75,18.21-9.75c6.89,0,12.38,1.91,16.46,5.73
		c4.08,3.82,6.12,8.87,6.12,15.16c0,4.82-1.44,9.11-4.32,12.85c-1.89,2.49-5,5.26-9.32,8.31l-5.13,3.64
		c-1.33,0.94-2.48,1.77-3.46,2.5H22.68c2.32-3,5.72-6.11,10.23-9.33c5.9-4.22,9.72-7.25,11.46-9.08c2.67-2.85,4-5.96,4-9.35
		c0-2.75-0.76-5.05-2.29-6.87c-1.53-1.83-3.71-2.74-6.56-2.74c-3.89,0-6.54,1.45-7.95,4.36c-0.81,1.68-1.29,4.34-1.44,8H17.68
		C17.89,26.39,18.9,21.92,20.69,18.5z M61.57,74.21H16.96c0.1-4.06,0.88-7.81,2.32-11.26h42.3V74.21z"/>
</g>
</svg>
